<?xml version="1.0" encoding="UTF-8"?>
<svg width="16" version="1.1" viewBox="0 0 22 22" xmlns="http://www.w3.org/2000/svg"><path fill="#616161" class="jp-icon3 jp-icon-selectable" d="m3.899 2.199c-0.8 0.1-1.601 0.8993-1.601 1.799v14.1c0 0.9 0.7006 1.601 1.601 1.601h9.55a1.05 1.05 0 0 0 0.02686 0 1.05 1.05 0 0 0 1.05-1.05 1.05 1.05 0 0 0-1.05-1.05 1.05 1.05 0 0 0-0.02686 0h-8.75c-0.1 0-0.1987-0.0014-0.1987-0.2014v-12.7c0-0.2 0.09873-0.3008 0.1987-0.3008h7.2v4.402s7.81e-4 0.7984 0.3008 1.098c0.3 0.3 1.098 0.3008 1.098 0.3008h4.302v0.2175a1.05 1.05 0 0 0 1.05 1.05 1.05 1.05 0 0 0 1.05-1.05v-1.018c0.1-0.5-0.1001-0.9004-0.4001-1.2l-5.5-5.5c-0.3-0.3-0.7004-0.4995-1.2-0.4995h-8.701zm9.601 2.702 3.4 3.599h-3.4v-3.599zm3.652 6.526a1.1 1.1 0 0 0-0.5532 0.1343 1.1 1.1 0 0 0-0.4404 1.493l0.5425 0.999c-1.077-0.2742-2.218-0.4919-3.459-0.572-2.147-0.1386-4.59 0.1357-7.517 1.251a1.1 1.1 0 0 0-0.6365 1.421 1.1 1.1 0 0 0 1.418 0.6365c4.261-1.625 7.037-1.331 9.738-0.5989l-0.9023 0.5989a1.1 1.1 0 0 0-0.3088 1.523 1.1 1.1 0 0 0 1.523 0.3115l2.935-1.942a1.1 1.1 0 0 0 0.3599-1.442l-1.759-3.236a1.1 1.1 0 0 0-0.6553-0.5317 1.1 1.1 0 0 0-0.2847-0.04565z"/></svg>
